<svg width="31" height="37" viewBox="0 0 31 37" fill="none" xmlns="http://www.w3.org/2000/svg">
<path fill-rule="evenodd" clip-rule="evenodd" d="M9.06823 0.302983C9.10794 0.302985 9.1478 0.302987 9.18779 0.302987L22.0209 0.302983C23.6309 0.302892 25.0182 0.302815 26.1291 0.452172C27.3197 0.612239 28.4609 0.973203 29.3865 1.89886C30.3122 2.82452 30.6731 3.96574 30.8332 5.1563C30.9826 6.26722 30.9825 7.65449 30.9824 9.26456V27.6658C30.9825 29.2758 30.9826 30.6631 30.8332 31.774C30.6731 32.9646 30.3122 34.1058 29.3865 35.0315C28.4609 35.9571 27.3197 36.3181 26.1291 36.4782C25.0182 36.6275 23.6309 36.6274 22.0208 36.6273H9.06827C7.4582 36.6274 6.07093 36.6275 4.96001 36.4782C3.76945 36.3181 2.62823 35.9571 1.70257 35.0315C0.776914 34.1058 0.41595 32.9646 0.255883 31.774C0.106526 30.6631 0.106603 29.2759 0.106694 27.6658L0.106698 9.38408C0.106698 9.34409 0.106696 9.30423 0.106694 9.26451C0.106603 7.65446 0.106526 6.26721 0.255883 5.1563C0.41595 3.96574 0.776914 2.82452 1.70257 1.89886C2.62823 0.973203 3.76945 0.612239 4.96001 0.452172C6.07092 0.302815 7.45817 0.302892 9.06823 0.302983ZM5.44403 4.05222C4.65626 4.15813 4.40935 4.32912 4.27109 4.46738C4.13283 4.60564 3.96184 4.85255 3.85593 5.64031C3.74299 6.48033 3.73913 7.62038 3.73913 9.38408V27.5463C3.73913 29.3099 3.74299 30.45 3.85593 31.29C3.96184 32.0778 4.13283 32.3247 4.27109 32.463C4.40935 32.6012 4.65626 32.7722 5.44403 32.8781C6.28404 32.9911 7.4241 32.9949 9.18779 32.9949H21.9013C23.665 32.9949 24.8051 32.9911 25.6451 32.8781C26.4328 32.7722 26.6798 32.6012 26.818 32.463C26.9563 32.3247 27.1273 32.0778 27.2332 31.29C27.3461 30.45 27.35 29.3099 27.35 27.5463V9.38408C27.35 7.62038 27.3461 6.48033 27.2332 5.64031C27.1273 4.85255 26.9563 4.60564 26.818 4.46738C26.6798 4.32912 26.4328 4.15813 25.6451 4.05222C24.8051 3.93928 23.665 3.93542 21.9013 3.93542H9.18779C7.4241 3.93542 6.28404 3.93928 5.44403 4.05222Z" fill="#303241"/>
<path d="M9.6792 18.9192C9.6792 17.6654 10.6956 16.6489 11.9495 16.6489C13.2033 16.6489 14.2197 17.6654 14.2197 18.9192C14.2197 20.173 13.2033 21.1895 11.9495 21.1895C10.6956 21.1895 9.6792 20.173 9.6792 18.9192Z" fill="#303241"/>
<path d="M9.6792 27.092C9.6792 25.8382 10.6956 24.8218 11.9495 24.8218C13.2033 24.8218 14.2197 25.8382 14.2197 27.092C14.2197 28.3459 13.2033 29.3623 11.9495 29.3623C10.6956 29.3623 9.6792 28.3459 9.6792 27.092Z" fill="#303241"/>
<path d="M17.8523 18.9192C17.8523 17.6654 18.8687 16.6489 20.1226 16.6489C21.3764 16.6489 22.3928 17.6654 22.3928 18.9192C22.3928 20.173 21.3764 21.1895 20.1226 21.1895C18.8687 21.1895 17.8523 20.173 17.8523 18.9192Z" fill="#303241"/>
<path d="M17.8523 27.092C17.8523 25.8382 18.8687 24.8218 20.1226 24.8218C21.3764 24.8218 22.3928 25.8382 22.3928 27.092C22.3928 28.3459 21.3764 29.3623 20.1226 29.3623C18.8687 29.3623 17.8523 28.3459 17.8523 27.092Z" fill="#303241"/>
<path d="M9.6792 10.7782C9.6792 9.52437 10.6956 8.50793 11.9495 8.50793C13.2033 8.50793 14.2197 9.52437 14.2197 10.7782C14.2197 12.032 13.2033 13.0485 11.9495 13.0485C10.6956 13.0485 9.6792 12.032 9.6792 10.7782Z" fill="#303241"/>
<path d="M9.6792 18.9512C9.6792 17.6973 10.6956 16.6809 11.9495 16.6809C13.2033 16.6809 14.2197 17.6973 14.2197 18.9512C14.2197 20.205 13.2033 21.2215 11.9495 21.2215C10.6956 21.2215 9.6792 20.205 9.6792 18.9512Z" fill="#303241"/>
<path d="M17.8523 10.7782C17.8523 9.52437 18.8687 8.50793 20.1226 8.50793C21.3764 8.50793 22.3928 9.52437 22.3928 10.7782C22.3928 12.032 21.3764 13.0485 20.1226 13.0485C18.8687 13.0485 17.8523 12.032 17.8523 10.7782Z" fill="#303241"/>
<path d="M17.8523 18.9512C17.8523 17.6973 18.8687 16.6809 20.1226 16.6809C21.3764 16.6809 22.3928 17.6973 22.3928 18.9512C22.3928 20.205 21.3764 21.2215 20.1226 21.2215C18.8687 21.2215 17.8523 20.205 17.8523 18.9512Z" fill="#303241"/>
</svg>
