<svg width="45" height="42" viewBox="0 0 45 42" fill="none" xmlns="http://www.w3.org/2000/svg">
<path fill-rule="evenodd" clip-rule="evenodd" d="M33.6655 36.6808L34.7218 21.8922L38.3451 22.151L37.2887 36.9396C37.0851 39.7909 34.7125 42 31.8539 42H13.1913C10.3328 42 7.96019 39.7909 7.75652 36.9396L6.7002 22.151L10.3234 21.8922L11.3797 36.6808C11.4476 37.6312 12.2385 38.3676 13.1913 38.3676H31.8539C32.8068 38.3676 33.5976 37.6312 33.6655 36.6808Z" fill="#303241"/>
<path fill-rule="evenodd" clip-rule="evenodd" d="M17.074 31.1028C17.074 29.0966 18.7003 27.4703 20.7064 27.4703H24.3388C26.345 27.4703 27.9713 29.0966 27.9713 31.1028V40.1839H24.3388V31.1028H20.7064V40.1839H17.074V31.1028Z" fill="#303241"/>
<path fill-rule="evenodd" clip-rule="evenodd" d="M8.90296 5.43628C4.38122 8.51432 4.36046 13.0228 4.36046 14.7568C4.36046 17.766 6.79991 20.2055 9.80912 20.2055C11.8581 20.2055 13.6457 19.0753 14.5778 17.3955C14.898 16.8185 15.506 16.4605 16.1659 16.4605C16.8258 16.4605 17.4338 16.8185 17.754 17.3955C18.6861 19.0753 20.4736 20.2055 22.5226 20.2055C24.5717 20.2055 26.3592 19.0753 27.2913 17.3955C27.6115 16.8185 28.2195 16.4605 28.8794 16.4605C29.5393 16.4605 30.1473 16.8185 30.4675 17.3955C31.3996 19.0753 33.1871 20.2055 35.2362 20.2055C38.2454 20.2055 40.6848 17.7661 40.6848 14.7569C40.6848 13.0228 40.6641 8.51432 36.1423 5.43628C35.0451 4.91473 33.1753 4.45211 30.7394 4.12732C28.2801 3.79941 25.4107 3.63244 22.5226 3.63244C19.6346 3.63244 16.7652 3.79941 14.3059 4.12732C11.87 4.45211 10.0002 4.91472 8.90296 5.43628ZM31.2194 0.526749C33.8177 0.873182 36.2223 1.41384 37.8646 2.23501C37.932 2.26869 37.9972 2.30652 38.0598 2.3483C44.3176 6.52011 44.3173 12.8289 44.3173 14.738V14.7568C44.3173 19.7722 40.2515 23.838 35.2362 23.838C32.7597 23.838 30.5162 22.8463 28.8794 21.2417C27.2426 22.8463 24.9991 23.838 22.5226 23.838C20.0462 23.838 17.8027 22.8463 16.1659 21.2417C14.5291 22.8463 12.2855 23.838 9.80912 23.838C4.79377 23.838 0.728028 19.7722 0.728028 14.7569L0.728028 14.738C0.727958 12.8289 0.727727 6.52011 6.98544 2.3483C7.0481 2.30652 7.1133 2.26869 7.18066 2.23501C8.82299 1.41384 11.2276 0.873179 13.8258 0.526747C16.4747 0.173569 19.5079 -4.33019e-07 22.5226 0C25.5373 4.33021e-07 28.5706 0.173571 31.2194 0.526749Z" fill="#303241"/>
</svg>
