<svg width="38" height="37" viewBox="0 0 38 37" fill="none" xmlns="http://www.w3.org/2000/svg">
<path d="M18.877 34.3001C39.3392 28.2349 40.3455 -5.79738 18.877 5.99592" stroke="#303241" stroke-width="5"/>
<path d="M18.8769 34.3002C-1.97758 28.1464 -3.00321 -6.04113 18.8769 5.92443" stroke="#303241" stroke-width="5"/>
<circle cx="18.8769" cy="6.26622" r="2.05126" fill="#303241"/>
<circle cx="18.8769" cy="6.26622" r="2.05126" fill="#303241"/>
<circle cx="18.8769" cy="6.26622" r="2.05126" fill="#303241"/>
<circle cx="18.8769" cy="6.26622" r="2.05126" fill="#303241"/>
<circle cx="18.8769" cy="6.26622" r="2.05126" fill="#303241"/>
<path d="M21.0449 34.3002C21.0449 35.433 20.1266 36.3514 18.9937 36.3514C17.8608 36.3514 16.9424 35.433 16.9424 34.3002C16.9424 33.1673 17.8608 32.2489 18.9937 32.2489C20.1266 32.2489 21.0449 33.1673 21.0449 34.3002Z" fill="#303241"/>
<path d="M21.0449 34.3002C21.0449 35.433 20.1266 36.3514 18.9937 36.3514C17.8608 36.3514 16.9424 35.433 16.9424 34.3002C16.9424 33.1673 17.8608 32.2489 18.9937 32.2489C20.1266 32.2489 21.0449 33.1673 21.0449 34.3002Z" fill="#303241"/>
<path d="M21.0449 34.3002C21.0449 35.433 20.1266 36.3514 18.9937 36.3514C17.8608 36.3514 16.9424 35.433 16.9424 34.3002C16.9424 33.1673 17.8608 32.2489 18.9937 32.2489C20.1266 32.2489 21.0449 33.1673 21.0449 34.3002Z" fill="#303241"/>
<path d="M21.0449 34.3002C21.0449 35.433 20.1266 36.3514 18.9937 36.3514C17.8608 36.3514 16.9424 35.433 16.9424 34.3002C16.9424 33.1673 17.8608 32.2489 18.9937 32.2489C20.1266 32.2489 21.0449 33.1673 21.0449 34.3002Z" fill="#303241"/>
<path d="M21.0449 34.3002C21.0449 35.433 20.1266 36.3514 18.9937 36.3514C17.8608 36.3514 16.9424 35.433 16.9424 34.3002C16.9424 33.1673 17.8608 32.2489 18.9937 32.2489C20.1266 32.2489 21.0449 33.1673 21.0449 34.3002Z" fill="#303241"/>
</svg>
