<svg width="41" height="38" viewBox="0 0 41 38" fill="none" xmlns="http://www.w3.org/2000/svg">
<path fill-rule="evenodd" clip-rule="evenodd" d="M34.2083 0.201908C34.2395 0.20191 34.2708 0.201911 34.3023 0.201911H38.4243C39.4461 0.201911 40.2744 1.01821 40.2744 2.02517C40.2744 3.03212 39.4461 3.84842 38.4243 3.84842H34.3023C33.0205 3.84842 32.2106 3.85105 31.5976 3.91837C31.0307 3.98064 30.8167 4.08267 30.6843 4.1731C30.5519 4.26353 30.3798 4.42521 30.1216 4.92643C29.8423 5.46845 29.5555 6.21489 29.1054 7.39763L28.131 9.95838C27.7722 10.9012 26.7058 11.3789 25.7491 11.0254C24.7924 10.6718 24.3076 9.62085 24.6664 8.67801L25.6408 6.11725C25.6519 6.08823 25.6629 6.0593 25.6738 6.03046C26.081 4.96018 26.4385 4.02054 26.8222 3.27575C27.2372 2.47011 27.7583 1.73486 28.5767 1.17594C29.395 0.617017 30.2766 0.394375 31.1878 0.294299C32.0301 0.201782 33.0484 0.201841 34.2083 0.201908Z" fill="#303241"/>
<path fill-rule="evenodd" clip-rule="evenodd" d="M30.4297 10.7193C29.9481 10.6494 29.2427 10.6448 28.0301 10.6448H12.2771C10.6771 10.6448 9.65088 10.6483 8.88809 10.745C8.17674 10.8353 7.93841 10.9816 7.79987 11.1042C7.66134 11.2269 7.48801 11.4451 7.3188 12.1345C7.13735 12.8738 7.02054 13.8824 6.84386 15.4555L6.64139 17.2581C6.42553 19.1799 6.28899 20.4332 6.31545 21.3622C6.34044 22.2396 6.50852 22.5119 6.64502 22.6627C6.78152 22.8136 7.03654 23.0089 7.91529 23.1304C8.8457 23.259 10.1199 23.2631 12.0746 23.2631H22.3663C23.676 23.2631 24.5053 23.2604 25.1314 23.1897C25.7109 23.1243 25.9263 23.0172 26.0586 22.9229C26.1908 22.8286 26.3616 22.6603 26.6076 22.1371C26.8734 21.5719 27.1383 20.7945 27.5524 19.5654L29.7588 13.0175C30.1423 11.8795 30.3609 11.216 30.4462 10.742C30.4474 10.7353 30.4485 10.7287 30.4497 10.7223C30.4431 10.7213 30.4365 10.7203 30.4297 10.7193ZM30.9585 7.15223C31.8093 7.27567 32.8216 7.58534 33.5148 8.53679C34.2081 9.48825 34.1849 10.5362 34.0342 11.3737C33.8963 12.1404 33.5863 13.0599 33.2542 14.0448C33.2416 14.0823 33.2289 14.1199 33.2162 14.1575L30.9797 20.7951C30.6047 21.9082 30.276 22.8838 29.912 23.6578C29.5185 24.4945 29.0117 25.2614 28.1895 25.8476C27.3673 26.4338 26.4716 26.667 25.5448 26.7717C24.6874 26.8685 23.6479 26.8684 22.4618 26.8684H11.9467C10.1558 26.8685 8.62369 26.8685 7.41097 26.7009C6.11779 26.5222 4.87943 26.1171 3.92945 25.0671C2.97947 24.0172 2.70924 22.7549 2.67246 21.4637C2.63797 20.2529 2.80724 18.7465 3.0051 16.9858C3.0098 16.944 3.01451 16.902 3.01924 16.86L3.22171 15.0573C3.22583 15.0206 3.22994 14.984 3.23404 14.9475C3.39474 13.516 3.53411 12.2746 3.77725 11.2839C4.03883 10.2181 4.47006 9.2141 5.36932 8.41789C6.26857 7.62167 7.32492 7.30856 8.42458 7.16907C9.44675 7.03942 10.7094 7.03949 12.1654 7.03957C12.2025 7.03957 12.2397 7.03958 12.2771 7.03958H28.0301C28.0703 7.03958 28.1104 7.03957 28.1504 7.03956C29.1998 7.0394 30.1797 7.03925 30.9585 7.15223Z" fill="#303241"/>
<path d="M27.2831 32.6802C27.2831 34.7571 25.7525 36.4408 23.8643 36.4408C21.9762 36.4408 20.4456 34.7571 20.4456 32.6802C20.4456 30.6033 21.9762 28.9196 23.8643 28.9196C25.7525 28.9196 27.2831 30.6033 27.2831 32.6802Z" fill="#303241"/>
<path d="M7.45423 32.6802C7.45423 34.7571 5.92359 36.4408 4.03546 36.4408C2.14733 36.4408 0.616699 34.7571 0.616699 32.6802C0.616699 30.6033 2.14733 28.9196 4.03546 28.9196C5.92359 28.9196 7.45423 30.6033 7.45423 32.6802Z" fill="#303241"/>
<path d="M32.7531 32.6802C32.7531 34.7571 31.2224 36.4408 29.3343 36.4408C27.4462 36.4408 25.9155 34.7571 25.9155 32.6802C25.9155 30.6033 27.4462 28.9196 29.3343 28.9196C31.2224 28.9196 32.7531 30.6033 32.7531 32.6802Z" fill="#303241"/>
<path fill-rule="evenodd" clip-rule="evenodd" d="M34.8043 32.3384C34.8043 35.3594 32.3553 37.8085 29.3343 37.8085C26.3133 37.8085 23.8643 35.3594 23.8643 32.3384C23.8643 29.3174 26.3133 26.8684 29.3343 26.8684C32.3553 26.8684 34.8043 29.3174 34.8043 32.3384ZM29.3343 35.9851C31.3483 35.9851 32.981 34.3524 32.981 32.3384C32.981 30.3244 31.3483 28.6917 29.3343 28.6917C27.3203 28.6917 25.6876 30.3244 25.6876 32.3384C25.6876 34.3524 27.3203 35.9851 29.3343 35.9851Z" fill="white"/>
<path d="M12.9242 32.6802C12.9242 34.7571 11.3936 36.4408 9.50543 36.4408C7.6173 36.4408 6.08667 34.7571 6.08667 32.6802C6.08667 30.6033 7.6173 28.9196 9.50543 28.9196C11.3936 28.9196 12.9242 30.6033 12.9242 32.6802Z" fill="#303241"/>
<path fill-rule="evenodd" clip-rule="evenodd" d="M14.9754 32.3384C14.9754 35.3594 12.5264 37.8085 9.50542 37.8085C6.48441 37.8085 4.0354 35.3594 4.0354 32.3384C4.0354 29.3174 6.48441 26.8684 9.50542 26.8684C12.5264 26.8684 14.9754 29.3174 14.9754 32.3384ZM9.50542 35.9851C11.5194 35.9851 13.1521 34.3524 13.1521 32.3384C13.1521 30.3244 11.5194 28.6917 9.50542 28.6917C7.49142 28.6917 5.85874 30.3244 5.85874 32.3384C5.85874 34.3524 7.49142 35.9851 9.50542 35.9851Z" fill="white"/>
</svg>
