<svg width="33" height="37" viewBox="0 0 33 37" fill="none" xmlns="http://www.w3.org/2000/svg">
<path fill-rule="evenodd" clip-rule="evenodd" d="M10.4518 9.28296C10.4901 9.28297 10.5285 9.28297 10.567 9.28297L22.7951 9.28296C24.3111 9.28288 25.6232 9.2828 26.682 9.41908C27.8199 9.56553 28.9121 9.89473 29.8289 10.7338C30.7457 11.5729 31.1615 12.624 31.3965 13.7341C31.6152 14.7671 31.7158 16.0602 31.832 17.5541L32.5573 26.8734C32.6916 28.5978 32.8067 30.0763 32.7339 31.2634C32.6561 32.5314 32.3526 33.7632 31.4003 34.7797C30.4479 35.7961 29.2286 36.1897 27.9554 36.3636C26.7635 36.5264 25.2631 36.5263 23.5133 36.5262H9.73367C7.98384 36.5263 6.48347 36.5264 5.29153 36.3636C4.01839 36.1897 2.79903 35.7961 1.84669 34.7797C0.894359 33.7632 0.590876 32.5314 0.51307 31.2634C0.440227 30.0763 0.555381 28.5978 0.689681 26.8734L1.40616 17.6676C1.40911 17.6296 1.41206 17.5918 1.41499 17.554C1.53117 16.0601 1.63173 14.767 1.85041 13.7341C2.08542 12.624 2.50128 11.5729 3.41806 10.7338C4.33484 9.89473 5.42705 9.56553 6.56491 9.41908C7.62371 9.2828 8.93586 9.28288 10.4518 9.28296ZM7.03949 13.0211C6.29861 13.1165 6.05516 13.2709 5.91515 13.399C5.77515 13.5272 5.6007 13.7552 5.44768 14.478C5.28385 15.2519 5.19815 16.306 5.0705 17.9462L4.36374 27.0273C4.21709 28.9116 4.12587 30.137 4.1815 31.0435C4.23392 31.8978 4.40465 32.1637 4.54325 32.3116C4.68185 32.4595 4.93701 32.6482 5.79472 32.7654C6.70499 32.8897 7.94816 32.8938 9.86026 32.8938H23.3867C25.2988 32.8938 26.542 32.8897 27.4522 32.7654C28.3099 32.6482 28.5651 32.4595 28.7037 32.3116C28.8423 32.1637 29.013 31.8978 29.0654 31.0435C29.1211 30.137 29.0299 28.9116 28.8832 27.0272L28.1764 17.9462C28.0488 16.306 27.9631 15.2519 27.7993 14.478C27.6462 13.7552 27.4718 13.5272 27.3318 13.399C27.1918 13.2709 26.9483 13.1165 26.2075 13.0211C25.4142 12.919 24.3443 12.9154 22.6799 12.9154H10.567C8.90269 12.9154 7.8327 12.919 7.03949 13.0211Z" fill="#303241"/>
<path fill-rule="evenodd" clip-rule="evenodd" d="M16.5648 0.201905H16.6823C17.4884 0.201883 18.1839 0.201863 18.7595 0.240682C19.3656 0.281555 19.9718 0.371464 20.5708 0.616661C21.9215 1.16967 22.9947 2.23038 23.5542 3.56545C23.8023 4.15741 23.8933 4.7566 23.9346 5.35564C23.9739 5.92458 23.9739 6.612 23.9739 7.40868L23.9739 11.0992H20.2987V7.46678C20.2987 6.59568 20.2977 6.03331 20.268 5.6029C20.2394 5.18881 20.1905 5.0311 20.1588 4.95552C19.9723 4.5105 19.6146 4.15693 19.1643 3.97259C19.0879 3.94129 18.9283 3.89295 18.5093 3.86469C18.0739 3.83533 17.5049 3.83434 16.6235 3.83434C15.7422 3.83434 15.1732 3.83533 14.7377 3.86469C14.3188 3.89295 14.1592 3.94129 14.0827 3.97259C13.6325 4.15693 13.2747 4.5105 13.0882 4.95552C13.0566 5.0311 13.0077 5.18881 12.9791 5.6029C12.9494 6.03331 12.9484 6.59568 12.9484 7.46678V11.0992H9.2732L9.27319 7.40869C9.27317 6.612 9.27315 5.92458 9.31243 5.35564C9.35378 4.7566 9.44475 4.15741 9.69283 3.56545C10.2523 2.23038 11.3255 1.16967 12.6763 0.616661C13.2752 0.371464 13.8815 0.281555 14.4876 0.240682C15.0632 0.201863 15.7587 0.201883 16.5648 0.201905Z" fill="#303241"/>
</svg>
