<svg width="45" height="32" viewBox="0 0 45 32" fill="none" xmlns="http://www.w3.org/2000/svg">
<path fill-rule="evenodd" clip-rule="evenodd" d="M9.43199 0.504887C9.47171 0.504889 9.51157 0.504892 9.55156 0.504892L35.0982 0.504887C36.7082 0.504797 38.0955 0.504719 39.2064 0.654077C40.3969 0.814143 41.5382 1.17511 42.4638 2.10077C43.3895 3.02642 43.7504 4.16764 43.9105 5.3582C44.0599 6.46912 44.0598 7.85639 44.0597 9.46646V22.419C44.0598 24.0291 44.0599 25.4164 43.9105 26.5273C43.7504 27.7178 43.3895 28.8591 42.4638 29.7847C41.5382 30.7104 40.3969 31.0713 39.2064 31.2314C38.0955 31.3808 36.7082 31.3807 35.0981 31.3806H9.43204C7.82197 31.3807 6.4347 31.3808 5.32378 31.2314C4.13322 31.0713 2.992 30.7104 2.06634 29.7847C1.14068 28.8591 0.77972 27.7178 0.619653 26.5273C0.470295 25.4164 0.470373 24.0291 0.470463 22.4191L0.470468 9.58598C0.470468 9.54599 0.470466 9.50614 0.470463 9.46642C0.470373 7.85637 0.470295 6.46911 0.619653 5.3582C0.77972 4.16764 1.14068 3.02642 2.06634 2.10077C2.992 1.17511 4.13322 0.814143 5.32378 0.654077C6.43469 0.504719 7.82194 0.504797 9.43199 0.504887ZM5.80779 4.25412C5.02003 4.36003 4.77312 4.53103 4.63486 4.66929C4.4966 4.80754 4.32561 5.05445 4.2197 5.84222C4.10676 6.68223 4.1029 7.82229 4.1029 9.58598V22.2995C4.1029 24.0632 4.10676 25.2033 4.2197 26.0433C4.32561 26.831 4.4966 27.0779 4.63486 27.2162C4.77312 27.3545 5.02003 27.5255 5.80779 27.6314C6.64781 27.7443 7.78787 27.7482 9.55156 27.7482H34.9786C36.7423 27.7482 37.8824 27.7443 38.7224 27.6314C39.5101 27.5255 39.757 27.3545 39.8953 27.2162C40.0336 27.0779 40.2046 26.831 40.3105 26.0433C40.4234 25.2033 40.4273 24.0632 40.4273 22.2995V9.58598C40.4273 7.82229 40.4234 6.68223 40.3105 5.84222C40.2046 5.05445 40.0336 4.80754 39.8953 4.66929C39.757 4.53103 39.5101 4.36003 38.7224 4.25412C37.8824 4.14118 36.7423 4.13733 34.9786 4.13733H9.55156C7.78787 4.13733 6.64781 4.14118 5.80779 4.25412Z" fill="#303241"/>
<path fill-rule="evenodd" clip-rule="evenodd" d="M7.73535 20.4833C7.73535 19.4803 8.5485 18.6671 9.55157 18.6671H24.0813C25.0844 18.6671 25.8975 19.4803 25.8975 20.4833C25.8975 21.4864 25.0844 22.2996 24.0813 22.2996H9.55157C8.5485 22.2996 7.73535 21.4864 7.73535 20.4833Z" fill="#303241"/>
<path fill-rule="evenodd" clip-rule="evenodd" d="M29.53 20.4833C29.53 19.4803 30.3432 18.6671 31.3462 18.6671H34.9787C35.9818 18.6671 36.7949 19.4803 36.7949 20.4833C36.7949 21.4864 35.9818 22.2996 34.9787 22.2996H31.3462C30.3432 22.2996 29.53 21.4864 29.53 20.4833Z" fill="#303241"/>
<path d="M15.0002 11.4022C15.0002 13.4083 13.3739 15.0346 11.3678 15.0346C9.36165 15.0346 7.73535 13.4083 7.73535 11.4022C7.73535 9.39607 9.36165 7.76978 11.3678 7.76978C13.3739 7.76978 15.0002 9.39607 15.0002 11.4022Z" fill="#303241"/>
<path d="M20.449 11.4022C20.449 13.4083 18.8227 15.0346 16.8165 15.0346C14.8104 15.0346 13.1841 13.4083 13.1841 11.4022C13.1841 9.39607 14.8104 7.76978 16.8165 7.76978C18.8227 7.76978 20.449 9.39607 20.449 11.4022Z" fill="#303241"/>
</svg>
